# Blender v2.62 (sub 0) OBJ File: ''
# www.blender.org
mtllib untitled.mtl
o Cube_Cube.001
v -1.000000 3.136159 -1.000000
v 1.000000 3.136159 -1.000000
v 1.000000 -3.136159 -1.000000
v -1.000000 -3.136158 -1.000000
v -1.000000 3.136160 1.000000
v 1.000001 3.136157 1.000000
v 1.000000 -3.136160 1.000000
v -1.000000 -3.136158 1.000000
v 1.000000 1.139680 -1.000000
v -1.000000 1.139680 -1.000000
v 1.000000 1.139678 1.000000
v -1.000000 1.139681 1.000000
v 1.000000 -0.997937 -1.000000
v -1.000000 -0.997936 -1.000000
v 1.000000 -0.997938 1.000000
v -1.000000 -0.997936 1.000000
v 3.497663 -0.997938 1.000000
v 3.497663 -0.997937 -1.000000
v 3.497663 1.139678 1.000000
v 3.497663 1.139679 -1.000000
v 5.937024 1.139678 0.999999
v 5.937024 1.139679 -1.000001
v 5.937024 -0.997937 -1.000001
v 5.937024 -0.997939 0.999999
v 5.937024 3.431202 -0.999999
v 3.497663 3.431203 -0.999998
v 5.937024 3.431201 1.000001
v 3.497663 3.431201 1.000002
v 5.937024 -3.313972 -1.000002
v 5.937024 -3.313973 0.999998
v 3.497663 -3.313973 0.999998
v 3.497663 -3.313972 -1.000002
v 3.497663 -3.313972 -1.000002
v 3.497663 -3.313973 0.999998
v 5.937024 -3.313973 0.999998
v 5.937024 -3.313972 -1.000002
v 3.497663 3.431201 1.000002
v 5.937024 3.431201 1.000001
v 3.497663 3.431203 -0.999998
v 5.937024 3.431202 -0.999999
v 5.937024 -0.997939 0.999999
v 5.937024 -0.997937 -1.000001
v 5.937024 1.139679 -1.000001
v 5.937024 1.139678 0.999999
v 3.497663 1.139679 -1.000000
v 3.497663 1.139678 1.000000
v 3.497663 -0.997937 -1.000000
v 3.497663 -0.997938 1.000000
v -1.000000 -0.997936 1.000000
v 1.000000 -0.997938 1.000000
v -1.000000 -0.997936 -1.000000
v 1.000000 -0.997937 -1.000000
v -1.000000 1.139681 1.000000
v 1.000000 1.139678 1.000000
v -1.000000 1.139680 -1.000000
v 1.000000 1.139680 -1.000000
v -1.000000 -3.136158 1.000000
v 1.000000 -3.136160 1.000000
v 1.000001 3.136157 1.000000
v -1.000000 3.136160 1.000000
v -1.000000 -3.136158 -1.000000
v 1.000000 -3.136159 -1.000000
v 1.000000 3.136159 -1.000000
v -1.000000 3.136159 -1.000000
v -1.000000 3.136159 2.000000
v 1.000000 3.136159 2.000000
v 1.000000 -3.136159 2.000000
v -1.000000 -3.136158 2.000000
v -1.000000 3.136160 4.000000
v 1.000001 3.136157 4.000000
v 1.000000 -3.136160 4.000000
v -1.000000 -3.136158 4.000000
v 1.000000 1.139680 2.000000
v -1.000000 1.139680 2.000000
v 1.000000 1.139678 4.000000
v -1.000000 1.139681 4.000000
v 1.000000 -0.997937 2.000000
v -1.000000 -0.997936 2.000000
v 1.000000 -0.997938 4.000000
v -1.000000 -0.997936 4.000000
v 3.497663 -0.997938 4.000000
v 3.497663 -0.997937 2.000000
v 3.497663 1.139678 4.000000
v 3.497663 1.139679 2.000000
v 5.937024 1.139678 3.999999
v 5.937024 1.139679 1.999999
v 5.937024 -0.997937 1.999999
v 5.937024 -0.997939 3.999999
v 5.937024 3.431202 2.000001
v 3.497663 3.431203 2.000002
v 5.937024 3.431201 4.000001
v 3.497663 3.431201 4.000002
v 5.937024 -3.313972 1.999998
v 5.937024 -3.313973 3.999998
v 3.497663 -3.313973 3.999998
v 3.497663 -3.313972 1.999998
vt 0.000000 0.000000
vt -1.000000 0.000000
vt -1.000000 1.000000
vt -0.000000 1.000000
vt 1.000000 0.000000
vt 1.000000 1.000000
vt 0.068079 0.000000
vt 0.068079 1.000000
vt -0.930160 1.000000
vt -0.930160 0.000000
vt 0.068079 -1.000000
vt -0.930160 -1.000000
vt -0.930161 0.000000
vt 0.068080 1.000000
vt 0.069840 0.000000
vt 0.069840 1.000000
vt -0.998968 1.000000
vt -0.998968 0.000000
vt 0.001032 0.000000
vt 0.001032 1.000000
vt -1.068079 1.000000
vt -1.068080 0.000000
vt 0.001031 0.000000
vt 0.001032 -1.000000
vt -1.068080 -1.000000
vt -1.068079 0.000000
vt -1.248832 -0.000000
vt -1.248832 -1.000000
vt 0.000000 -1.000000
vt 0.001031 -1.248832
vt 1.069840 -1.248832
vt 1.069840 0.000000
vt -1.248832 1.000000
vt 0.001031 0.751168
vt 0.001031 -0.468512
vt 1.069840 -0.468512
vt 1.069840 0.751168
vt 0.069839 0.751168
vt 0.069839 -0.468512
vt -0.998969 -0.468512
vt -0.998969 0.751168
vt 0.069839 1.000000
vt -0.998969 -0.000000
vt -0.998969 1.000000
vt 0.069840 0.531488
vt 1.215601 0.531488
vt 1.215601 1.751168
vt 0.069840 1.751168
vt 1.215600 1.000001
vt 1.215601 0.000001
vt 1.215600 0.751168
vt 1.215600 -0.468512
vt 1.215601 1.000001
vt 1.215600 2.000001
vt 0.069839 2.000000
vt 0.751168 0.000001
vt -0.468512 0.000001
vt -0.468512 1.000001
vt 0.751168 1.000001
vt 0.001031 1.000000
vt -1.156986 0.999999
vt -1.156986 1.999999
vt 0.001031 2.000000
vt 0.001031 0.531488
vt -1.156986 0.531488
vt -1.156986 1.751168
vt 0.001031 1.751168
vt -1.156986 0.751168
vt -1.156986 -0.468512
vt -1.156986 -0.000001
vt 0.751168 0.999999
vt -0.468512 0.999999
vt -0.468512 -0.000001
vt 0.751168 -0.000001
vt 0.000000 0.500000
vt -1.000000 0.500000
vt -1.000000 1.500000
vt -0.000000 1.500000
vt 1.000000 0.500000
vt 1.000000 1.500000
vt 0.068079 0.500000
vt 0.068079 -0.500000
vt -0.930160 -0.500000
vt -0.930161 0.500000
vt 0.068080 1.500000
vt -0.930160 1.500000
vt -0.930160 0.500000
vt 0.001031 0.500000
vt 0.001032 -0.500000
vt -1.068080 -0.500000
vt -1.068080 0.500000
vt 0.069840 0.500000
vt 0.069840 1.500000
vt -0.998968 1.500000
vt -0.998968 0.500000
vt 0.001032 0.500000
vt 0.001032 1.500000
vt -1.068079 1.500000
vt -1.068079 0.500000
vt -1.248832 0.500000
vt -1.248832 -0.500000
vt 0.000000 -0.500000
vt -1.248832 1.500000
vt 0.069839 0.500000
vt 0.069840 -0.500000
vt -0.998969 -0.500000
vt -0.998969 0.500000
vt 1.215600 0.500001
vt 1.215601 -0.499999
vt 1.215601 0.500001
vt 1.215600 1.500001
vt 0.069839 1.500000
vt 0.751168 0.500001
vt -0.468512 0.500001
vt -0.468512 1.500001
vt 0.751168 1.500001
vt -1.156986 0.499999
vt -1.156986 1.499999
vt 0.001031 1.500000
vt -1.156986 -0.500001
vt 0.001031 -0.500000
vt 0.751168 0.499999
vt -0.468512 0.499999
vt -0.468512 -0.500001
vt 0.751168 -0.500001
vn -0.000001 -1.000000 -0.000000
vn 0.000001 1.000000 0.000000
vn 0.000000 -0.000000 1.000000
vn -1.000000 0.000000 0.000000
vn 1.000000 -0.000000 -0.000000
vn 0.000000 1.000000 0.000001
vn -0.000000 -1.000000 -0.000001
vn -0.000000 0.000000 -1.000000
vn 0.000000 -0.000001 1.000000
vn -0.000000 0.000001 -1.000000
usemtl Material.001
s off
f 1/1/1 2/2/1 6/3/1
f 1/1/1 6/3/1 5/4/1
f 3/1/2 4/5/2 8/6/2
f 3/1/2 8/6/2 7/4/2
f 2/7/3 1/8/3 10/9/3
f 2/7/3 10/9/3 9/10/3
f 6/7/4 2/11/4 9/12/4
f 6/7/4 9/12/4 11/13/4
f 1/7/5 5/14/5 12/9/5
f 1/7/5 12/9/5 10/10/5
f 9/15/3 10/16/3 14/17/3
f 9/15/3 14/17/3 13/18/3
f 13/19/3 14/20/3 4/21/3
f 13/19/3 4/21/3 3/22/3
f 15/23/4 13/24/4 3/25/4
f 15/23/4 3/25/4 7/22/4
f 10/15/5 12/16/5 16/17/5
f 10/15/5 16/17/5 14/18/5
f 14/19/5 16/20/5 8/21/5
f 14/19/5 8/21/5 4/26/5
f 15/1/6 17/27/6 18/28/6
f 15/1/6 18/28/6 13/29/6
f 13/19/3 18/30/3 20/31/3
f 13/19/3 20/31/3 9/32/3
f 9/1/7 20/27/7 19/33/7
f 9/1/7 19/33/7 11/4/7
f 18/34/3 23/35/3 22/36/3
f 18/34/3 22/36/3 20/37/3
f 19/38/8 21/39/8 24/40/8
f 19/38/8 24/40/8 17/41/8
f 21/42/4 22/15/4 23/43/4
f 21/42/4 23/43/4 24/44/4
f 22/45/9 25/46/9 26/47/9
f 22/45/9 26/47/9 20/48/9
f 21/42/4 27/49/4 25/50/4
f 21/42/4 25/50/4 22/15/4
f 19/38/10 28/51/10 27/52/10
f 19/38/10 27/52/10 21/39/10
f 20/16/5 26/53/5 28/54/5
f 20/16/5 28/54/5 19/55/5
f 26/56/7 25/57/7 27/58/7
f 26/56/7 27/58/7 28/59/7
f 23/60/4 29/61/4 30/62/4
f 23/60/4 30/62/4 24/63/4
f 24/64/10 30/65/10 31/66/10
f 24/64/10 31/66/10 17/67/10
f 18/34/9 32/68/9 29/69/9
f 18/34/9 29/69/9 23/35/9
f 17/60/5 31/61/5 32/70/5
f 17/60/5 32/70/5 18/23/5
f 31/71/6 30/72/6 29/73/6
f 31/71/6 29/73/6 32/74/6
f 34/71/6 35/72/6 36/73/6
f 34/71/6 36/73/6 33/74/6
f 48/60/5 34/61/5 33/70/5
f 48/60/5 33/70/5 47/23/5
f 47/34/9 33/68/9 36/69/9
f 47/34/9 36/69/9 42/35/9
f 41/64/10 35/65/10 34/66/10
f 41/64/10 34/66/10 48/67/10
f 42/60/4 36/61/4 35/62/4
f 42/60/4 35/62/4 41/63/4
f 39/56/7 40/57/7 38/58/7
f 39/56/7 38/58/7 37/59/7
f 45/16/5 39/53/5 37/54/5
f 45/16/5 37/54/5 46/55/5
f 46/38/10 37/51/10 38/52/10
f 46/38/10 38/52/10 44/39/10
f 44/42/4 38/49/4 40/50/4
f 44/42/4 40/50/4 43/15/4
f 43/45/9 40/46/9 39/47/9
f 43/45/9 39/47/9 45/48/9
f 44/42/4 43/15/4 42/43/4
f 44/42/4 42/43/4 41/44/4
f 46/38/8 44/39/8 41/40/8
f 46/38/8 41/40/8 48/41/8
f 47/34/3 42/35/3 43/36/3
f 47/34/3 43/36/3 45/37/3
f 56/1/7 45/27/7 46/33/7
f 56/1/7 46/33/7 54/4/7
f 52/19/3 47/30/3 45/31/3
f 52/19/3 45/31/3 56/32/3
f 50/1/6 48/27/6 47/28/6
f 50/1/6 47/28/6 52/29/6
f 51/19/5 49/20/5 57/21/5
f 51/19/5 57/21/5 61/26/5
f 55/15/5 53/16/5 49/17/5
f 55/15/5 49/17/5 51/18/5
f 50/23/4 52/24/4 62/25/4
f 50/23/4 62/25/4 58/22/4
f 52/19/3 51/20/3 61/21/3
f 52/19/3 61/21/3 62/22/3
f 56/15/3 55/16/3 51/17/3
f 56/15/3 51/17/3 52/18/3
f 64/7/5 60/14/5 53/9/5
f 64/7/5 53/9/5 55/10/5
f 59/7/4 63/11/4 56/12/4
f 59/7/4 56/12/4 54/13/4
f 63/7/3 64/8/3 55/9/3
f 63/7/3 55/9/3 56/10/3
f 62/1/2 61/5/2 57/6/2
f 62/1/2 57/6/2 58/4/2
f 64/1/1 63/2/1 59/3/1
f 64/1/1 59/3/1 60/4/1
f 65/75/1 66/76/1 70/77/1
f 65/75/1 70/77/1 69/78/1
f 67/75/2 68/79/2 72/80/2
f 67/75/2 72/80/2 71/78/2
f 66/7/3 65/8/3 74/9/3
f 66/7/3 74/9/3 73/10/3
f 70/81/4 66/82/4 73/83/4
f 70/81/4 73/83/4 75/84/4
f 65/81/5 69/85/5 76/86/5
f 65/81/5 76/86/5 74/87/5
f 73/15/3 74/16/3 78/17/3
f 73/15/3 78/17/3 77/18/3
f 77/19/3 78/20/3 68/21/3
f 77/19/3 68/21/3 67/22/3
f 79/88/4 77/89/4 67/90/4
f 79/88/4 67/90/4 71/91/4
f 74/92/5 76/93/5 80/94/5
f 74/92/5 80/94/5 78/95/5
f 78/96/5 80/97/5 72/98/5
f 78/96/5 72/98/5 68/99/5
f 79/75/6 81/100/6 82/101/6
f 79/75/6 82/101/6 77/102/6
f 77/19/3 82/30/3 84/31/3
f 77/19/3 84/31/3 73/32/3
f 73/75/7 84/100/7 83/103/7
f 73/75/7 83/103/7 75/78/7
f 82/34/3 87/35/3 86/36/3
f 82/34/3 86/36/3 84/37/3
f 83/38/8 85/39/8 88/40/8
f 83/38/8 88/40/8 81/41/8
f 85/104/4 86/105/4 87/106/4
f 85/104/4 87/106/4 88/107/4
f 86/45/9 89/46/9 90/47/9
f 86/45/9 90/47/9 84/48/9
f 85/104/4 91/108/4 89/109/4
f 85/104/4 89/109/4 86/105/4
f 83/38/10 92/51/10 91/52/10
f 83/38/10 91/52/10 85/39/10
f 84/92/5 90/110/5 92/111/5
f 84/92/5 92/111/5 83/112/5
f 90/113/7 89/114/7 91/115/7
f 90/113/7 91/115/7 92/116/7
f 87/88/4 93/117/4 94/118/4
f 87/88/4 94/118/4 88/119/4
f 88/64/10 94/65/10 95/66/10
f 88/64/10 95/66/10 81/67/10
f 82/34/9 96/68/9 93/69/9
f 82/34/9 93/69/9 87/35/9
f 81/88/5 95/117/5 96/120/5
f 81/88/5 96/120/5 82/121/5
f 95/122/6 94/123/6 93/124/6
f 95/122/6 93/124/6 96/125/6
